<svg version="1.1" id="Layer_1" xmlns="http://www.w3.org/2000/svg" xmlns:xlink="http://www.w3.org/1999/xlink" x="0px" y="0px"
	 width="100%" viewBox="0 0 1024 1024" enable-background="new 0 0 1024 1024" xml:space="preserve">
<path fill="#000000" opacity="1.000000" stroke="none" 
	d="
M98.749786,708.464661 
	C100.016373,719.973694 101.170639,731.033264 102.290840,742.096252 
	C102.407845,743.251831 102.334335,744.427917 102.329994,745.594360 
	C102.316734,749.161499 101.018951,751.827759 97.135635,752.319336 
	C92.742813,752.875488 90.549980,750.222839 89.891342,746.406189 
	C88.932625,740.850708 88.363266,735.225647 87.703239,729.621338 
	C83.528206,694.171326 82.690430,658.554871 83.800674,622.952026 
	C85.074776,582.094666 90.463615,541.850952 106.024521,503.553436 
	C120.171631,468.735413 141.480072,439.247284 170.754852,415.589935 
	C171.266251,415.176666 171.718445,414.690155 172.629562,413.831238 
	C169.925629,409.626190 166.514145,405.603577 166.284103,400.233521 
	C166.256241,399.583008 165.658340,398.803772 165.867935,398.319153 
	C169.039764,390.985168 163.953278,387.680908 159.459045,383.337677 
	C149.189865,373.413361 149.024384,357.436951 159.144073,345.839508 
	C166.401138,337.522736 168.868439,328.718170 167.008011,317.788849 
	C165.186310,307.086945 169.085358,297.344299 175.897964,289.050934 
	C184.142441,279.014465 192.715637,269.247162 201.187973,259.398987 
	C213.592468,244.980148 229.975479,238.298126 248.280457,235.724258 
	C258.949646,234.224075 269.624786,232.510315 280.517242,234.513611 
	C288.390930,235.961731 295.663605,238.660812 301.907623,243.536469 
	C305.748444,246.535568 309.885101,247.863831 314.529297,248.773438 
	C325.114227,250.846603 334.572205,254.930069 337.445435,266.704651 
	C339.376831,274.619843 339.486877,282.606445 334.143799,289.594940 
	C332.364868,291.921692 332.241150,294.274078 332.771790,297.095123 
	C334.456940,306.054108 338.040497,315.367279 336.868164,323.997162 
	C334.748016,339.604065 340.715393,352.826996 345.112762,366.702118 
	C348.046570,375.959320 345.334961,380.499237 335.670013,381.211945 
	C331.205750,381.541138 329.544037,382.820435 331.219818,387.349579 
	C332.093964,389.712250 332.419403,392.645081 330.385895,394.439026 
	C326.623840,397.757996 326.636261,401.655212 327.285034,406.054932 
	C327.772278,409.359100 326.945343,412.658112 326.442078,415.957794 
	C325.466400,422.354675 327.326935,428.473297 328.709900,434.630768 
	C330.804688,443.957703 330.128357,452.788879 321.957733,459.055298 
	C312.838837,466.049011 302.836334,466.977142 292.455658,461.595245 
	C287.428955,458.989136 283.824158,454.886475 280.461853,450.489075 
	C278.563080,448.005768 276.725922,445.427338 273.625397,443.792969 
	C270.358643,447.860687 268.763123,452.632141 266.406708,456.970276 
	C265.622833,458.413361 266.354370,459.410583 267.347595,460.475769 
	C285.999939,480.479645 294.968536,505.326324 302.214966,530.944519 
	C307.520874,549.702454 309.702332,569.006653 311.480927,588.373657 
	C311.864929,592.554993 311.580170,597.016235 313.859772,601.486023 
	C318.586060,599.544617 323.154816,597.695312 327.699707,595.789062 
	C329.856476,594.884460 329.727112,592.898315 329.624207,591.078491 
	C328.854797,577.469055 328.010742,563.863770 327.241364,550.254333 
	C326.460541,536.442139 326.332336,522.638550 327.333893,508.817566 
	C328.018677,499.367798 328.136230,489.878357 328.688660,480.417236 
	C329.734833,462.500549 331.690094,444.730133 336.160278,427.258972 
	C341.666809,405.737640 354.852783,390.527191 373.680786,379.568481 
	C388.965210,370.672302 405.040588,363.338257 420.804382,355.387756 
	C422.589294,354.487518 424.330292,353.486603 426.161774,352.694611 
	C435.846466,348.506683 440.031494,340.679138 440.572083,330.618347 
	C440.893005,324.645538 440.606018,318.766998 438.923096,312.839264 
	C433.513733,293.786224 428.816772,274.392883 428.920715,254.557999 
	C429.111481,218.146698 452.273499,184.140244 493.682983,178.549591 
	C533.988525,173.108002 575.484436,193.995178 586.261963,242.355576 
	C587.379456,247.369995 588.289551,252.435669 589.135986,257.504242 
	C590.284424,264.382019 588.601318,270.783661 585.106445,276.649750 
	C582.696899,280.694061 582.761108,284.562561 584.036865,288.958282 
	C586.270935,296.655670 589.077087,304.101410 592.348206,311.398102 
	C593.300476,313.522217 594.277832,315.669006 594.898804,317.901306 
	C596.778564,324.658630 594.215637,329.157684 587.601990,331.529053 
	C585.464722,332.295349 582.950562,332.119995 580.966309,334.088593 
	C583.748779,339.677277 586.698181,345.241058 587.810669,351.547974 
	C588.427856,355.047180 588.926270,358.655273 587.966003,361.941345 
	C586.889160,365.625763 588.305237,366.972137 591.248779,368.426971 
	C600.355957,372.928345 609.308655,377.741119 618.384155,382.308258 
	C643.982300,395.190338 658.339111,416.242615 663.154846,444.102173 
	C666.999939,466.346436 669.316467,488.779724 671.508911,511.248444 
	C673.550476,532.171265 673.125977,553.111755 673.464172,575.124512 
	C681.634155,561.890320 688.246826,548.959167 694.987305,536.097534 
	C710.855591,505.818726 727.539734,476.041534 749.599365,449.689209 
	C753.652039,444.847870 758.214478,440.418640 762.712585,435.972107 
	C764.439209,434.265259 764.961609,432.792938 763.438965,430.817108 
	C763.236755,430.554749 763.077881,430.256866 762.915710,429.966095 
	C760.565674,425.751282 759.184753,420.274078 755.297180,417.849915 
	C751.236145,415.317535 746.120728,419.040985 741.406128,419.152588 
	C733.804871,419.332489 726.107239,420.529968 718.717224,417.405823 
	C711.492371,414.351501 706.660400,409.267670 704.693665,401.604980 
	C702.245361,392.066132 702.218079,382.200317 700.871094,372.511047 
	C700.477905,369.682465 699.499084,368.423889 696.666748,368.099182 
	C693.713745,367.760590 690.745178,367.170654 687.908264,366.288879 
	C682.134949,364.494446 679.732849,359.969818 681.692932,354.233276 
	C684.005493,347.465027 686.555664,340.768372 689.261230,334.146271 
	C693.322205,324.206940 695.598206,314.142151 695.905701,303.203278 
	C696.537048,280.742432 702.826599,260.138458 720.916687,245.001968 
	C735.239685,233.017578 752.195984,226.824310 770.371033,223.836487 
	C787.975952,220.942398 804.876587,223.397644 820.595215,232.098282 
	C840.390625,243.055511 850.446350,260.913879 855.290466,282.231293 
	C860.102234,303.406677 857.095215,323.380127 846.437317,342.445038 
	C837.103760,359.141083 843.055908,381.993073 858.013367,393.711609 
	C891.170959,419.688873 913.653442,452.926239 924.307678,493.920013 
	C929.119568,512.434753 932.543274,531.161316 934.461853,550.211243 
	C936.309998,568.562683 937.563232,586.926270 938.562500,605.346558 
	C939.773865,627.677124 939.581604,649.990051 939.094604,672.280579 
	C938.561279,696.692566 936.568787,721.066895 933.303284,745.301697 
	C932.623840,750.344055 930.300415,752.588013 926.018555,752.372803 
	C920.782776,752.109619 920.380615,748.419250 920.704285,744.547607 
	C921.741333,732.143738 922.948669,719.754089 924.064880,707.356689 
	C924.616028,701.235168 925.269958,695.117249 925.603027,688.982788 
	C926.777832,667.348816 927.262146,645.674500 926.534729,624.038330 
	C925.334534,588.338745 923.368835,552.672852 916.702454,517.451843 
	C910.857910,486.573090 900.151001,457.858459 879.792114,433.377289 
	C873.741394,426.101318 867.409302,419.084351 860.055054,412.740082 
	C840.897156,430.657715 818.657532,444.127502 799.598328,461.571045 
	C776.133545,483.046753 760.485596,509.830536 747.534424,538.399109 
	C735.634399,564.648865 725.671936,591.640625 717.416321,619.256531 
	C715.116699,626.948792 712.789612,628.664429 704.916016,628.440674 
	C678.948547,627.702759 653.302979,623.927795 627.703552,619.950012 
	C617.501770,618.364746 608.596130,620.280823 600.437256,626.431152 
	C591.096741,633.472290 583.236145,641.964294 575.245117,651.232422 
	C583.341125,655.141724 591.591187,656.312134 599.468872,658.660339 
	C607.913574,661.177673 616.653625,660.152283 625.214050,661.142883 
	C638.476990,662.677612 651.087402,667.092346 663.930786,670.424194 
	C689.823059,677.140930 715.889954,683.002747 742.264587,687.459839 
	C758.775757,690.250122 770.872498,683.671570 780.137695,670.097534 
	C788.514465,657.825012 795.862915,644.965759 803.330627,632.162903 
	C818.198425,606.673096 831.125122,580.162659 844.374573,553.822815 
	C845.347412,551.888672 846.339539,549.959045 847.435181,548.093384 
	C848.853760,545.678101 851.011597,544.695312 853.765808,545.337585 
	C856.533691,545.983093 857.935608,547.855591 858.297180,550.630371 
	C858.704102,553.753418 857.767700,556.543030 856.332581,559.236816 
	C844.192322,582.024109 833.750000,605.694885 820.565247,627.940491 
	C819.143250,630.339600 817.993347,632.899902 816.715576,635.388794 
	C821.221497,638.896851 825.564880,641.957520 829.546631,645.432556 
	C849.394958,662.754944 850.585022,687.220703 832.890015,707.249878 
	C823.209595,718.207214 811.291199,726.029907 798.379822,732.400024 
	C759.218384,751.721252 717.361633,762.069092 674.587158,769.457520 
	C648.032593,774.044434 621.293457,777.039673 594.467896,779.056091 
	C555.901611,781.954956 517.230042,782.048828 478.591858,781.055298 
	C458.329193,780.534241 438.039642,779.235291 417.871735,777.201477 
	C363.403076,771.708618 309.458588,763.222290 257.827545,744.085693 
	C238.945862,737.087402 220.257828,729.305420 204.542450,716.157776 
	C194.116058,707.434814 185.851501,697.242920 183.536240,683.229126 
	C181.384872,670.207275 185.910828,659.381104 194.237839,649.816406 
	C196.629089,647.069824 199.352036,644.503723 202.301819,642.381592 
	C205.406799,640.147705 205.157272,638.185913 203.245819,635.367249 
	C189.109879,614.521606 177.147125,592.385864 164.920761,570.409851 
	C163.554672,567.954346 162.127426,565.517639 161.522308,562.675842 
	C160.872284,559.623291 161.097412,556.776184 164.044434,555.302979 
	C167.308212,553.671387 170.445145,554.762024 172.307480,557.792358 
	C175.705215,563.321167 178.724411,569.081299 181.956268,574.713562 
	C198.873062,604.194702 216.298630,633.301147 236.648514,660.656311 
	C250.458359,679.220154 268.726776,683.393494 290.008881,681.326843 
	C305.706573,679.802551 321.359558,677.970703 336.968597,675.694092 
	C359.464142,672.412903 382.001129,669.416565 404.501495,666.167480 
	C423.386871,663.440369 442.133514,659.793518 461.099823,657.585022 
	C463.365601,657.321228 465.590057,656.702332 467.777222,656.259460 
	C467.802673,655.682434 467.959198,655.253296 467.810364,655.062683 
	C458.033783,642.546753 446.456879,632.131226 431.809937,625.684814 
	C425.048981,622.709167 418.051697,624.281555 411.340576,626.660095 
	C401.758881,630.056030 392.252228,633.599731 381.749451,632.334717 
	C363.124359,630.091431 344.510773,627.802368 326.158447,623.794006 
	C320.807587,622.625366 315.442261,621.520996 310.102142,620.305603 
	C306.187317,619.414612 302.851746,617.462830 301.211548,613.678406 
	C293.866119,596.730286 284.321594,580.823364 277.930695,563.406250 
	C270.941132,544.357605 264.788910,524.976379 256.170624,506.549744 
	C249.306000,491.872650 239.597000,479.678436 225.438492,471.335327 
	C223.452881,470.165314 221.569214,468.684875 219.971359,467.027130 
	C217.701645,464.672394 216.860901,461.841980 219.008331,458.896606 
	C221.228317,455.851868 224.095779,456.270264 227.027435,457.694458 
	C238.793304,463.410309 248.623871,471.438416 256.179321,482.171204 
	C267.129639,497.726440 273.946167,515.242493 280.405640,532.950073 
	C284.966705,545.453491 289.781982,557.864258 294.513031,570.305298 
	C294.914337,571.360657 295.537384,572.331665 296.667236,574.526489 
	C296.918762,564.100586 294.551239,555.372253 292.627991,546.621033 
	C288.294556,526.902771 282.254730,507.759277 272.779358,489.817627 
	C268.773804,482.233093 263.856079,475.429352 257.390442,469.701172 
	C250.736160,463.805878 250.289124,460.789276 254.108093,452.591736 
	C256.988159,446.409607 259.893585,440.239258 263.029419,433.547943 
	C253.836990,425.699097 251.308487,414.857666 250.138199,403.097961 
	C249.066833,392.332306 250.746475,381.885254 251.784729,371.326385 
	C252.221619,366.883423 246.982346,362.081451 242.606491,363.003174 
	C240.683441,363.408264 240.566833,364.695099 240.739151,366.415527 
	C242.508438,384.079315 234.789291,393.275452 217.265121,394.166565 
	C215.144135,394.274445 214.335098,394.998016 213.727463,396.737976 
	C210.050842,407.266083 202.598724,413.385132 191.739227,415.573792 
	C190.647141,415.793884 189.518784,416.409332 188.662628,417.140381 
	C168.727692,434.161682 149.510849,451.771423 135.433380,474.342621 
	C119.702232,499.565308 109.960228,526.936707 104.353867,555.945801 
	C100.249008,577.185669 98.234550,598.622742 97.070938,620.234924 
	C95.760612,644.572083 96.569107,668.834656 97.403183,693.124634 
	C97.573906,698.096619 98.207481,703.052734 98.749786,708.464661 
M397.789764,680.443970 
	C396.490234,680.722900 395.202362,681.085693 393.889404,681.268250 
	C374.156891,684.013428 354.406586,686.634583 334.690033,689.489319 
	C314.106873,692.469421 293.510681,695.107788 272.641998,694.382812 
	C255.920227,693.801880 241.970200,687.575745 231.579254,674.154663 
	C227.807022,669.282410 224.104324,664.356384 220.343918,659.474854 
	C218.049149,656.495911 216.074203,653.222473 212.905472,650.764893 
	C208.165909,654.063354 203.863602,657.434875 200.620819,661.950684 
	C194.014603,671.150391 193.604324,680.728455 199.203568,690.523926 
	C203.590363,698.198364 209.824036,704.196594 217.080002,709.075439 
	C234.931122,721.078369 254.706772,728.992432 275.036621,735.545898 
	C317.408081,749.204468 360.949646,756.996521 405.148865,761.868408 
	C432.616364,764.896057 460.151703,766.733704 487.711548,767.437805 
	C527.817627,768.462585 567.916382,767.400879 607.933105,763.818665 
	C628.285461,761.996765 648.584412,759.774292 668.712158,756.416931 
	C709.635620,749.590820 749.883484,740.191833 787.702148,722.388123 
	C801.040588,716.109009 813.911499,709.138428 823.725342,697.774353 
	C829.317566,691.298645 833.192932,683.764160 832.482056,675.064453 
	C831.328186,660.941467 820.748962,654.064087 809.942322,646.985046 
	C807.984802,649.997742 806.345459,652.487366 804.739502,654.998535 
	C799.356506,663.415649 794.321167,672.045044 788.467041,680.172485 
	C776.360291,696.980469 760.300476,703.549622 739.824158,700.300415 
	C711.745300,695.844604 684.113098,689.408081 656.706787,681.997498 
	C641.958679,678.009644 627.389343,673.813782 611.908447,673.238892 
	C594.619934,672.596924 578.515381,666.206238 562.269836,660.952637 
	C557.096313,659.279541 555.908752,653.564819 559.449890,649.464600 
	C570.120483,637.109375 580.735718,624.648621 593.941467,614.833191 
	C601.185547,609.448853 609.208130,606.198669 618.529053,606.605835 
	C634.657166,607.310242 650.471008,610.574585 666.482239,612.204834 
	C677.217712,613.297913 687.936462,614.559021 698.678101,615.582825 
	C700.742676,615.779602 703.476624,616.463196 704.235657,613.148560 
	C702.496643,611.403381 700.417969,610.877563 698.352478,610.243835 
	C679.899109,604.582092 661.033752,600.679443 642.042480,597.451660 
	C608.910889,591.820618 575.459900,588.602417 541.923523,587.626587 
	C501.002472,586.435852 460.046021,586.269531 419.227142,591.144165 
	C393.448273,594.222656 367.961945,598.545776 342.921173,605.385193 
	C338.544403,606.580688 333.997833,607.513672 329.220795,610.696655 
	C331.951569,611.497314 333.775757,612.232788 335.670197,612.553894 
	C345.644897,614.244934 355.605469,616.073303 365.631531,617.393860 
	C378.760590,619.123291 391.710449,621.086365 404.749756,615.098450 
	C413.824280,610.931274 424.261139,609.454712 434.024811,612.939148 
	C457.030975,621.149658 473.180878,637.639160 485.421844,658.181152 
	C488.530426,663.397766 485.245392,667.745361 478.954376,668.418701 
	C469.053314,669.478455 459.142548,670.554138 449.303619,672.064209 
	C432.397278,674.658813 415.543152,677.593445 397.789764,680.443970 
M505.273712,552.386047 
	C501.649933,551.940857 498.000122,551.646423 494.406525,551.026367 
	C469.063171,546.653320 443.731079,542.149109 418.134796,539.553101 
	C411.893829,538.920105 408.919800,536.151611 408.795074,529.177124 
	C408.571777,516.692932 408.887604,504.203491 407.690948,491.738922 
	C406.469299,479.013733 405.726959,466.239838 404.339539,453.534821 
	C403.891174,449.429199 403.193390,445.693115 407.821686,443.902863 
	C411.516571,442.473633 414.696411,445.112000 416.568146,450.722961 
	C416.931549,451.812317 417.192108,452.962006 417.309479,454.103485 
	C419.655426,476.925537 421.418091,499.791534 422.012939,522.730225 
	C422.106201,526.326538 423.213989,527.778259 426.959503,527.702026 
	C435.128662,527.535767 443.172363,529.018066 451.199677,530.315613 
	C472.167450,533.704712 493.089233,537.383301 514.074463,540.657288 
	C524.816650,542.333252 535.371094,543.981384 544.343628,550.975464 
	C551.820068,556.803345 558.200806,563.469849 562.594849,571.875305 
	C563.992615,574.549133 565.704712,575.669434 568.784302,575.831909 
	C577.078369,576.269348 585.367676,576.963928 593.627625,577.848450 
	C613.591431,579.986206 633.566772,582.148438 653.314514,585.810730 
	C658.487915,586.770142 659.627808,584.677246 659.604065,580.537537 
	C659.554504,571.901428 660.772522,563.337952 660.098328,554.628601 
	C659.084595,541.532837 659.519165,528.321045 658.407104,515.237732 
	C656.960571,498.219147 654.773132,481.255951 652.577026,464.311371 
	C651.083740,452.790192 649.203308,441.289337 644.955383,430.376068 
	C634.628174,403.843964 610.619934,393.882874 586.765198,382.122375 
	C587.583923,385.304199 588.130798,387.519531 588.724487,389.722290 
	C593.785461,408.500336 584.620239,426.358643 566.661499,432.695496 
	C546.220459,439.908234 517.470886,432.835052 503.545044,416.008057 
	C495.984711,406.872620 487.725525,398.508270 479.678741,389.879486 
	C471.454987,381.060913 466.221375,370.759735 464.456055,358.531555 
	C462.804047,347.088074 465.189209,336.019684 466.047272,324.802643 
	C466.178284,323.089874 466.804138,321.501190 465.096588,320.328308 
	C458.147308,315.554962 453.280975,309.110077 449.838837,301.367554 
	C453.516937,311.014801 453.646179,320.955597 453.348572,330.958435 
	C452.956482,344.138794 448.161682,354.904083 436.507721,361.936707 
	C433.513794,363.743439 430.503632,365.532562 427.423370,367.185242 
	C412.749481,375.058502 397.713043,382.225281 383.226685,390.480560 
	C363.919434,401.483063 351.127716,416.877838 347.022369,439.225433 
	C342.255463,465.174530 341.229523,491.409088 340.434601,517.642029 
	C339.759247,539.929443 340.253540,562.233032 342.268433,584.482605 
	C342.853241,590.940308 342.535980,591.032593 348.873169,589.503784 
	C369.885925,584.434387 391.216980,581.101318 412.670105,578.827576 
	C427.194336,577.288208 441.750397,575.853760 456.400604,575.412659 
	C479.527679,574.716248 502.624451,573.140076 525.786987,574.412292 
	C533.033264,574.810242 540.319824,574.474243 548.866272,574.474243 
	C541.957764,565.163391 534.828186,558.012268 524.320984,555.440430 
	C518.377991,553.985779 512.215881,553.426086 505.273712,552.386047 
M703.203003,597.073669 
	C710.509583,599.310181 710.503784,599.308228 712.852478,592.256470 
	C722.230103,564.101440 733.273987,536.654724 747.177551,510.386627 
	C761.115906,484.052734 778.246155,460.291748 801.934448,441.793427 
	C815.058472,431.544861 828.417297,421.597412 841.584351,411.403259 
	C844.248352,409.340790 847.392029,407.527466 848.481262,403.689575 
	C841.455200,398.598175 836.464966,392.096344 833.579956,384.021179 
	C827.318176,366.494568 826.501038,349.219238 836.208313,332.547974 
	C844.776672,317.832550 846.206909,302.293915 842.678284,285.840454 
	C837.929016,263.694916 826.184204,247.347992 804.440369,239.663376 
	C784.972717,232.783203 766.005493,236.640091 747.647583,244.452774 
	C722.867981,254.998444 710.582153,274.165070 709.295288,300.824097 
	C708.692810,313.304443 707.345093,325.631866 701.924622,337.214600 
	C699.430786,342.543732 697.793579,348.273712 695.679382,354.064362 
	C698.332031,354.614227 700.262573,355.058502 702.211426,355.397156 
	C703.018860,355.537506 703.865906,355.474457 704.694458,355.465240 
	C710.297119,355.403107 713.062744,357.780579 713.280518,363.414520 
	C713.666016,373.387238 715.108398,383.237030 716.322510,393.118225 
	C717.470093,402.458832 722.031311,406.470215 731.556824,406.694641 
	C738.975952,406.869385 746.072571,405.107483 753.182373,403.439545 
	C760.382874,401.750397 762.570068,402.484161 766.275574,408.915680 
	C769.932556,415.262878 773.516724,421.657501 776.930420,428.137939 
	C780.434509,434.789856 780.096130,437.547119 774.606201,442.727936 
	C759.093933,457.366730 746.466064,474.274994 735.147278,492.231323 
	C715.408203,523.545715 699.293640,556.889709 681.048218,589.041260 
	C680.846069,589.397522 681.023010,589.968872 681.023010,590.999329 
	C688.097290,592.921753 695.270325,594.870911 703.203003,597.073669 
M575.641846,260.677551 
	C575.310547,258.547089 575.016602,256.410034 574.641968,254.287201 
	C571.760498,237.960831 566.576843,222.674973 554.373779,210.710297 
	C537.389832,194.058105 516.825317,189.238495 493.774200,192.345016 
	C467.732086,195.854614 443.567413,222.169418 442.253937,248.477112 
	C441.604797,261.478760 443.533234,274.115692 446.932556,287.416901 
	C446.787384,282.063629 448.093781,277.807404 450.000214,273.706451 
	C451.176239,271.176636 453.028656,269.330475 455.683502,268.404907 
	C458.599915,267.388153 461.735504,266.655273 464.005798,269.344360 
	C466.386780,272.164581 465.612610,275.195831 463.455597,277.989258 
	C462.048157,279.811951 460.132660,281.534454 460.451385,284.097260 
	C461.359863,291.401581 462.805603,298.560760 467.670654,304.467560 
	C468.943024,306.012329 470.351410,307.377167 472.522003,307.706604 
	C482.805450,309.267456 483.374908,309.554230 485.582336,319.875977 
	C488.583923,333.911163 497.579529,341.473358 510.961761,344.939484 
	C516.322144,346.327881 520.967651,345.235229 524.865967,341.687500 
	C531.209167,335.914703 538.598999,332.465302 546.841980,330.522156 
	C550.840942,329.579437 554.785461,328.919983 556.615662,324.041992 
	C557.737854,321.051056 561.487854,320.913422 564.483154,320.745483 
	C567.637878,320.568573 570.809082,320.702423 573.972107,320.648407 
	C576.288086,320.608826 578.614502,320.519165 580.265503,318.587585 
	C580.322815,316.227875 579.481812,314.222260 578.670532,312.229095 
	C575.847717,305.294067 573.558960,298.180237 571.190002,291.081604 
	C568.860962,284.102539 569.400879,277.727997 573.054993,271.454712 
	C574.826965,268.412750 576.380676,265.265869 575.641846,260.677551 
M327.594391,355.798706 
	C325.894592,350.930969 324.250854,346.042603 322.473419,341.203400 
	C321.452301,338.423248 321.217621,335.667023 322.387268,332.943756 
	C326.842682,322.570374 321.397400,313.074432 320.610962,301.813995 
	C313.145782,309.759186 305.367249,314.441956 296.149567,316.203369 
	C289.262634,317.519409 285.845154,321.832458 284.444885,328.192261 
	C283.733612,331.422638 283.345459,334.729584 282.916290,338.015625 
	C281.927795,345.584625 277.841980,352.033234 275.423584,359.078491 
	C273.048370,365.997864 273.494049,372.738068 279.278534,377.909760 
	C286.550110,384.411041 295.603882,388.670776 302.439026,397.419342 
	C305.185699,389.606415 309.444916,384.800873 316.273865,383.258148 
	C315.902252,380.856506 315.576233,379.229675 315.410645,377.586639 
	C314.969177,373.205841 317.057465,370.585510 321.278229,369.740326 
	C331.563385,367.680817 331.570312,367.715454 328.246643,357.991913 
	C328.085114,357.519348 327.923889,357.046692 327.594391,355.798706 
z"/>
<path fill="#000000" opacity="1.000000" stroke="none" 
	d="
M788.709167,299.555511 
	C801.539001,292.494385 814.257751,299.210510 816.047180,314.245178 
	C817.495117,326.410675 814.959351,338.072998 808.200195,348.519470 
	C805.440491,352.784882 801.811401,356.130524 796.798462,357.743866 
	C793.146912,358.919098 790.630432,357.499969 788.850891,354.453308 
	C787.090637,351.439545 788.195435,348.883514 790.789612,347.105438 
	C801.010803,340.099762 803.120178,329.445587 803.543335,318.264404 
	C803.805786,311.329254 799.580200,308.719727 793.409546,311.457916 
	C790.833252,312.601074 788.582214,312.664764 786.568359,310.600403 
	C784.451233,308.430145 784.136902,305.913788 785.706848,303.314056 
	C786.465637,302.057404 787.492188,300.962463 788.709167,299.555511 
z"/>
</svg>